<svg width="16" height="13" viewBox="0 0 16 13" fill="none" xmlns="http://www.w3.org/2000/svg">
<path d="M3.6 4.0625C4.13043 4.0625 4.63914 3.84849 5.01421 3.46756C5.38929 3.08663 5.6 2.56997 5.6 2.03125C5.6 1.49253 5.38929 0.975873 5.01421 0.594939C4.63914 0.214006 4.13043 0 3.6 0C3.06957 0 2.56086 0.214006 2.18579 0.594939C1.81071 0.975873 1.6 1.49253 1.6 2.03125C1.6 2.56997 1.81071 3.08663 2.18579 3.46756C2.56086 3.84849 3.06957 4.0625 3.6 4.0625ZM12.8 4.0625C13.3304 4.0625 13.8391 3.84849 14.2142 3.46756C14.5893 3.08663 14.8 2.56997 14.8 2.03125C14.8 1.49253 14.5893 0.975873 14.2142 0.594939C13.8391 0.214006 13.3304 0 12.8 0C12.2696 0 11.7609 0.214006 11.3858 0.594939C11.0107 0.975873 10.8 1.49253 10.8 2.03125C10.8 2.56997 11.0107 3.08663 11.3858 3.46756C11.7609 3.84849 12.2696 4.0625 12.8 4.0625ZM0 7.58418C0 7.88125 0.24 8.125 0.5325 8.125H5.8825C5.2175 7.52832 4.8 6.65742 4.8 5.6875C4.8 5.49453 4.8175 5.30664 4.8475 5.12129C4.5075 4.96133 4.13 4.875 3.7325 4.875H2.665C1.195 4.875 0 6.08867 0 7.58418ZM8 8.125C8.6 8.125 9.1475 7.90156 9.5675 7.5334C9.63 7.43945 9.6975 7.34805 9.7675 7.26172C9.835 7.17793 9.91 7.10684 9.9925 7.05098C10.25 6.65996 10.4 6.19277 10.4 5.6875C10.4 4.3418 9.325 3.25 8 3.25C6.675 3.25 5.6 4.3418 5.6 5.6875C5.6 7.0332 6.675 8.125 8 8.125ZM9.635 9.65352C9.3775 9.50371 9.1825 9.24219 9.115 8.9375H6.535C4.6925 8.9375 3.2 10.4533 3.2 12.3221C3.2 12.6953 3.4975 13 3.8675 13H11.3825C11.33 12.868 11.3025 12.7232 11.3025 12.5836V12.5074C11.27 12.4896 11.235 12.4693 11.2025 12.449L11.1375 12.4871C10.7175 12.7334 10.125 12.6902 9.77 12.2408C9.6575 12.0986 9.555 11.9488 9.46 11.7939L9.4575 11.7889L9.455 11.7838L9.395 11.6797L9.3925 11.6746L9.39 11.6695C9.305 11.5121 9.23 11.3496 9.165 11.1795C8.96 10.6412 9.22 10.0979 9.64 9.85156L9.7075 9.81348V9.69668L9.64 9.65859L9.635 9.65352ZM13.3325 4.875H12.265C11.8675 4.875 11.49 4.96387 11.15 5.12129C11.1825 5.3041 11.1975 5.49453 11.1975 5.6875C11.1975 6.1293 11.11 6.54824 10.955 6.93164C11.0175 6.95449 11.0775 6.98242 11.1325 7.01543L11.1975 7.05352C11.23 7.0332 11.2625 7.01289 11.2975 6.99512V6.91895C11.2975 6.42637 11.63 5.92617 12.1925 5.8373C12.39 5.80684 12.5925 5.78906 12.7975 5.78906C13.0025 5.78906 13.205 5.8043 13.4025 5.8373C13.965 5.92617 14.2975 6.42637 14.2975 6.91895V6.99512C14.33 7.01289 14.365 7.0332 14.3975 7.05352L14.4625 7.01543C14.8825 6.76914 15.475 6.8123 15.83 7.26172C15.8875 7.33281 15.9425 7.40898 15.995 7.48262C15.9425 6.03281 14.77 4.875 13.33 4.875H13.3325ZM15.615 9.03652C15.7725 8.94512 15.8525 8.75469 15.785 8.57949C15.7325 8.43984 15.67 8.30527 15.6 8.17578L15.5425 8.07422C15.465 7.94473 15.38 7.82285 15.2875 7.70605C15.1725 7.56133 14.97 7.53594 14.8125 7.62988L14.74 7.67305C14.51 7.80762 14.23 7.77461 14 7.64004C13.77 7.50547 13.5975 7.27187 13.5975 7.00273V6.91641C13.5975 6.73105 13.475 6.56602 13.295 6.53809C13.1325 6.5127 12.9675 6.5 12.7975 6.5C12.6275 6.5 12.4625 6.5127 12.3 6.53809C12.12 6.56602 11.9975 6.73105 11.9975 6.91641V7.00273C11.9975 7.27187 11.825 7.50547 11.595 7.64004C11.365 7.77461 11.085 7.80762 10.855 7.67305L10.7825 7.62988C10.625 7.53848 10.4225 7.56387 10.3075 7.70605C10.215 7.82285 10.13 7.94727 10.0525 8.07676L9.995 8.17578C9.925 8.30527 9.8625 8.43984 9.81 8.57949C9.745 8.75215 9.8225 8.94258 9.98 9.03398L10.0525 9.07715C10.2825 9.21172 10.395 9.47832 10.395 9.74746C10.395 10.0166 10.2825 10.2832 10.0525 10.4178L9.9775 10.4609C9.82 10.5523 9.74 10.7428 9.8075 10.9154C9.86 11.0551 9.9225 11.1871 9.9925 11.3166L10.0525 11.4207C10.1275 11.5502 10.2125 11.6721 10.305 11.7889C10.42 11.9336 10.6225 11.959 10.78 11.865L10.8525 11.8219C11.0825 11.6873 11.3625 11.7203 11.5925 11.8549C11.8225 11.9895 11.995 12.223 11.995 12.4922V12.5785C11.995 12.7639 12.1175 12.9289 12.2975 12.9568C12.46 12.9822 12.625 12.9949 12.795 12.9949C12.965 12.9949 13.13 12.9822 13.2925 12.9568C13.4725 12.9289 13.595 12.7639 13.595 12.5785V12.4922C13.595 12.223 13.7675 11.9895 13.9975 11.8549C14.2275 11.7203 14.5075 11.6873 14.7375 11.8219L14.81 11.865C14.9675 11.9564 15.17 11.9311 15.285 11.7889C15.3775 11.6721 15.4625 11.5502 15.5375 11.4207L15.5975 11.3141C15.6675 11.1846 15.73 11.0525 15.7825 10.9129C15.8475 10.7402 15.77 10.5498 15.6125 10.4584L15.5375 10.4152C15.3075 10.2807 15.195 10.0141 15.195 9.74492C15.195 9.47578 15.3075 9.20918 15.5375 9.07461L15.6125 9.03145L15.615 9.03652ZM11.8 9.75C11.8 9.48064 11.9054 9.22231 12.0929 9.03184C12.2804 8.84138 12.5348 8.73438 12.8 8.73438C13.0652 8.73438 13.3196 8.84138 13.5071 9.03184C13.6946 9.22231 13.8 9.48064 13.8 9.75C13.8 10.0194 13.6946 10.2777 13.5071 10.4682C13.3196 10.6586 13.0652 10.7656 12.8 10.7656C12.5348 10.7656 12.2804 10.6586 12.0929 10.4682C11.9054 10.2777 11.8 10.0194 11.8 9.75Z" fill="white"/>
</svg>
