<svg width="24" height="24" viewBox="0 0 24 24" fill="none" xmlns="http://www.w3.org/2000/svg">
<path d="M22 9.48251C18.6125 6.27251 14.0595 5.00251 9.75 5.67401M19 12.8995C17.6958 11.5908 16.0498 10.6753 14.25 10.2575M5 12.8995C5.64689 12.2515 6.38055 11.6964 7.18 11.25M8 16.157C8.69239 15.4626 9.55417 14.961 10.5 14.702" stroke="white" stroke-width="2" stroke-linecap="round" stroke-linejoin="round"/>
<path fill-rule="evenodd" clip-rule="evenodd" d="M12 20C12.3315 20 12.6495 19.8683 12.8839 19.6339C13.1183 19.3995 13.25 19.0815 13.25 18.75C13.25 18.4185 13.1183 18.1005 12.8839 17.8661C12.6495 17.6317 12.3315 17.5 12 17.5C11.6685 17.5 11.3505 17.6317 11.1161 17.8661C10.8817 18.1005 10.75 18.4185 10.75 18.75C10.75 19.0815 10.8817 19.3995 11.1161 19.6339C11.3505 19.8683 11.6685 20 12 20Z" fill="white"/>
<path d="M20 20L4 4M2 9.4825C2.54561 8.96448 3.13071 8.48972 3.75 8.0625" stroke="white" stroke-width="2" stroke-linecap="round" stroke-linejoin="round"/>
</svg>
