<svg width="16" height="16" viewBox="0 0 16 16" fill="none" xmlns="http://www.w3.org/2000/svg">
<path d="M0.615385 0C0.276308 0 0 0.276308 0 0.615385V9.23077C0 9.904 0.557538 10.4615 1.23077 10.4615H7.096C7.25921 10.4615 7.41574 10.3967 7.53114 10.2813C7.64655 10.1659 7.71138 10.0094 7.71138 9.84615C7.71138 9.68294 7.64655 9.52642 7.53114 9.41101C7.41574 9.2956 7.25921 9.23077 7.096 9.23077H1.23077V3.07692H14.7692V9.23077H12.6154C12.4522 9.23077 12.2956 9.2956 12.1802 9.41101C12.0648 9.52642 12 9.68294 12 9.84615C12 10.0094 12.0648 10.1659 12.1802 10.2813C12.2956 10.3967 12.4522 10.4615 12.6154 10.4615H14.7692C15.4425 10.4615 16 9.904 16 9.23077V0.615385C16 0.276308 15.7237 0 15.3846 0H0.615385ZM2.59631 4.30769C2.4331 4.33062 2.28568 4.41745 2.18649 4.54907C2.0873 4.68069 2.04445 4.84633 2.06738 5.00954C2.09032 5.17275 2.17714 5.32016 2.30876 5.41936C2.44039 5.51855 2.60602 5.56139 2.76923 5.53846H7.69231C7.85552 5.53846 8.01204 5.47363 8.12745 5.35822C8.24286 5.24281 8.30769 5.08629 8.30769 4.92308C8.30769 4.75987 8.24286 4.60334 8.12745 4.48793C8.01204 4.37253 7.85552 4.30769 7.69231 4.30769H2.76923C2.74996 4.30679 2.73066 4.30679 2.71138 4.30769C2.69232 4.3068 2.67322 4.3068 2.65415 4.30769C2.63488 4.30679 2.61558 4.30679 2.59631 4.30769ZM10.5963 4.30769C10.4331 4.33062 10.2857 4.41745 10.1865 4.54907C10.0873 4.68069 10.0445 4.84633 10.0674 5.00954C10.0903 5.17275 10.1771 5.32016 10.3088 5.41936C10.4404 5.51855 10.606 5.56139 10.7692 5.53846H13.2308C13.394 5.53846 13.5505 5.47363 13.6659 5.35822C13.7813 5.24281 13.8462 5.08629 13.8462 4.92308C13.8462 4.75987 13.7813 4.60334 13.6659 4.48793C13.5505 4.37253 13.394 4.30769 13.2308 4.30769H10.7692C10.75 4.30679 10.7307 4.30679 10.7114 4.30769C10.6923 4.3068 10.6732 4.3068 10.6542 4.30769C10.6349 4.30679 10.6156 4.30679 10.5963 4.30769ZM2.59631 6.15385C2.51549 6.1652 2.43771 6.19236 2.36739 6.23378C2.29708 6.27519 2.2356 6.33005 2.18649 6.39523C2.0873 6.52685 2.04445 6.69248 2.06738 6.85569C2.07874 6.93651 2.1059 7.01429 2.14732 7.08461C2.18873 7.15492 2.24359 7.2164 2.30876 7.26551C2.44039 7.3647 2.60602 7.40755 2.76923 7.38461H7.69231C7.85552 7.38461 8.01204 7.31978 8.12745 7.20437C8.24286 7.08897 8.30769 6.93244 8.30769 6.76923C8.30769 6.60602 8.24286 6.44949 8.12745 6.33409C8.01204 6.21868 7.85552 6.15385 7.69231 6.15385H2.76923C2.74996 6.15294 2.73066 6.15294 2.71138 6.15385C2.69232 6.15296 2.67322 6.15296 2.65415 6.15385C2.63488 6.15294 2.61558 6.15294 2.59631 6.15385ZM12.8271 6.46154C12.7812 6.48348 12.7414 6.51646 12.7114 6.55754L12.3655 6.904C11.7169 6.98831 10.5778 7.71138 10.2886 8L7.01908 11.2695L8.46154 12.7114L11.7311 9.44246C11.9729 9.2 12.7483 7.96677 12.808 7.30769L13.1342 6.98092C13.1796 6.93466 13.2093 6.87521 13.219 6.81106C13.2286 6.74692 13.2178 6.68135 13.188 6.62375C13.1581 6.56614 13.1109 6.51943 13.0529 6.4903C12.9949 6.46117 12.9293 6.4511 12.8652 6.46154H12.8271ZM6.44246 11.8271L4.07692 14.192C3.78154 14.4874 3.64185 15.296 4.03815 15.6923C4.43446 16.0886 5.15754 15.9957 5.51938 15.6345L7.88492 13.2695L6.44246 11.8271ZM9.19262 12.4228C9.08147 12.4395 8.97941 12.4938 8.90339 12.5766L6.42338 15.0382C6.36933 15.0814 6.325 15.1355 6.29329 15.1971C6.26158 15.2586 6.2432 15.3261 6.23936 15.3952C6.23551 15.4644 6.24629 15.5335 6.27098 15.5982C6.29566 15.6629 6.33371 15.7216 6.38264 15.7706C6.43156 15.8195 6.49027 15.8576 6.55491 15.8824C6.61956 15.9071 6.6887 15.918 6.75782 15.9142C6.82693 15.9104 6.89448 15.8921 6.95604 15.8604C7.0176 15.8288 7.07179 15.7845 7.11508 15.7305L9.59631 13.2689C9.6722 13.1974 9.72342 13.1037 9.7426 13.0012C9.76177 12.8987 9.74791 12.7927 9.70302 12.6986C9.65812 12.6045 9.5845 12.5271 9.49277 12.4775C9.40104 12.4279 9.29594 12.4088 9.19262 12.4228Z" fill="white"/>
</svg>
