<svg width="16" height="16" viewBox="0 0 16 16" fill="none" xmlns="http://www.w3.org/2000/svg">
<path d="M6.51994 6.35555C7.9927 6.35555 9.1866 5.16164 9.1866 3.68888C9.1866 2.21612 7.9927 1.02222 6.51994 1.02222C5.04718 1.02222 3.85327 2.21612 3.85327 3.68888C3.85327 5.16164 5.04718 6.35555 6.51994 6.35555Z" fill="white"/>
<path d="M7.30669 14.1422C7.15982 13.997 7.06398 13.808 7.03353 13.6037C7.00308 13.3994 7.03967 13.1907 7.1378 13.0089L7.37336 12.5645L6.88892 12.4178C6.69137 12.356 6.51938 12.2314 6.39906 12.0629C6.27875 11.8945 6.21667 11.6914 6.22225 11.4845V10.5733C6.22188 10.3673 6.28778 10.1667 6.41024 10.001C6.53269 9.83531 6.70519 9.71343 6.90225 9.65334L7.38669 9.50668L7.15558 9.06223C7.06032 8.88293 7.02407 8.67815 7.052 8.47704C7.07993 8.27594 7.17062 8.08878 7.31114 7.94223C6.96921 7.8975 6.62486 7.87375 6.28003 7.87112C5.2615 7.84714 4.25024 8.04822 3.31836 8.46C2.38647 8.87177 1.55694 9.48411 0.888916 10.2533V13.6978C0.888916 13.8157 0.935741 13.9287 1.01909 14.0121C1.10244 14.0954 1.21549 14.1422 1.33336 14.1422H7.30669Z" fill="white"/>
<path d="M14.9778 10.4267L14.0889 10.16C14.0275 9.94045 13.941 9.72869 13.8312 9.52889L14.2756 8.70222C14.2928 8.67154 14.2991 8.63594 14.2934 8.60123C14.2878 8.56653 14.2705 8.53476 14.2445 8.51111L13.6001 7.86222C13.5752 7.83806 13.5436 7.82212 13.5094 7.81656C13.4752 7.81099 13.4402 7.81607 13.4089 7.83111L12.5867 8.27555C12.3844 8.1655 12.1715 8.07616 11.9512 8.00889L11.6801 7.12C11.6681 7.08722 11.6463 7.05894 11.6177 7.03905C11.589 7.01915 11.5549 7.00862 11.5201 7.00889H10.5956C10.561 7.00985 10.5274 7.02146 10.4996 7.04213C10.4718 7.06281 10.451 7.09154 10.4401 7.12444L10.1734 8.01333C9.94907 8.0792 9.7329 8.17014 9.52895 8.28444L8.7245 7.84C8.69323 7.82337 8.65752 7.81701 8.62243 7.82179C8.58733 7.82658 8.55463 7.84227 8.52895 7.86666L7.87562 8.50666C7.84989 8.53145 7.83294 8.56395 7.82733 8.59923C7.82171 8.63452 7.82774 8.67067 7.8445 8.70222L8.28895 9.51111C8.16976 9.71179 8.07289 9.92491 8.00006 10.1467L7.11117 10.4178C7.07755 10.4275 7.04804 10.448 7.02717 10.4761C7.00629 10.5042 6.99521 10.5383 6.99562 10.5733V11.4844C6.99521 11.5194 7.00629 11.5536 7.02717 11.5817C7.04804 11.6098 7.07755 11.6303 7.11117 11.64L8.00006 11.9111C8.06672 12.1288 8.1561 12.3388 8.26673 12.5378L7.82228 13.3822C7.80552 13.4138 7.79949 13.4499 7.80511 13.4852C7.81072 13.5205 7.82767 13.553 7.85339 13.5778L8.51562 14.2222C8.5413 14.2466 8.574 14.2623 8.60909 14.2671C8.64419 14.2719 8.6799 14.2655 8.71117 14.2489L9.54228 13.8044C9.73994 13.9111 9.94856 13.996 10.1645 14.0578L10.4312 14.9689C10.4424 15.0025 10.4638 15.0317 10.4925 15.0525C10.5212 15.0732 10.5558 15.0844 10.5912 15.0844H11.5023C11.5369 15.0835 11.5705 15.0719 11.5983 15.0512C11.6261 15.0305 11.6469 15.0018 11.6578 14.9689L11.9245 14.0578C12.1377 13.9964 12.3435 13.9115 12.5378 13.8044L13.3778 14.2489C13.4091 14.2655 13.4448 14.2719 13.4799 14.2671C13.515 14.2623 13.5477 14.2466 13.5734 14.2222L14.2223 13.5778C14.2467 13.5521 14.2624 13.5194 14.2672 13.4843C14.2719 13.4492 14.2656 13.4135 14.249 13.3822L13.8045 12.5467C13.9106 12.3518 13.9955 12.1462 14.0578 11.9333L14.9467 11.6622C14.9801 11.6515 15.0095 11.6309 15.0309 11.6031C15.0523 11.5753 15.0648 11.5417 15.0667 11.5067V10.5867C15.0678 10.5544 15.0601 10.5225 15.0445 10.4943C15.0288 10.4662 15.0058 10.4428 14.9778 10.4267ZM11.0534 12.5244C10.7596 12.5253 10.4722 12.439 10.2275 12.2764C9.98277 12.1139 9.79182 11.8823 9.67878 11.6112C9.56575 11.34 9.53571 11.0414 9.59249 10.7531C9.64926 10.4649 9.79029 10.2 9.99772 9.99192C10.2051 9.78387 10.4696 9.64205 10.7577 9.58441C11.0458 9.52677 11.3445 9.55591 11.616 9.66813C11.8875 9.78035 12.1196 9.97061 12.2829 10.2148C12.4462 10.459 12.5334 10.7462 12.5334 11.04C12.5334 11.4329 12.3776 11.8098 12.1002 12.0881C11.8228 12.3663 11.4463 12.5233 11.0534 12.5244Z" fill="white"/>
</svg>
