<svg width="16" height="16" viewBox="0 0 16 16" fill="none" xmlns="http://www.w3.org/2000/svg">
<path d="M10 10H15V11H10V10ZM10 12H15V13H10V12ZM10 14H15V15H10V14ZM8 10C7.73567 10.0062 7.47284 9.95864 7.22741 9.86031C6.98197 9.76198 6.75904 9.61488 6.57208 9.42793C6.38512 9.24097 6.23803 9.01803 6.1397 8.77259C6.04137 8.52716 5.99384 8.26433 6 8C5.99384 7.73567 6.04137 7.47284 6.1397 7.22741C6.23803 6.98197 6.38512 6.75904 6.57208 6.57208C6.75904 6.38512 6.98197 6.23803 7.22741 6.1397C7.47284 6.04137 7.73567 5.99384 8 6C8.26433 5.99384 8.52716 6.04137 8.77259 6.1397C9.01803 6.23803 9.24097 6.38512 9.42793 6.57208C9.61488 6.75904 9.76198 6.98197 9.86031 7.22741C9.95864 7.47284 10.0062 7.73567 10 8H11C11 7.40666 10.8241 6.82664 10.4944 6.33329C10.1648 5.83994 9.69623 5.45543 9.14805 5.22836C8.59987 5.0013 7.99667 4.94189 7.41473 5.05765C6.83279 5.1734 6.29824 5.45912 5.87868 5.87868C5.45912 6.29824 5.1734 6.83279 5.05765 7.41473C4.94189 7.99667 5.0013 8.59987 5.22836 9.14805C5.45543 9.69623 5.83994 10.1648 6.33329 10.4944C6.82664 10.8241 7.40666 11 8 11V10Z" fill="white"/>
<path d="M14.6526 5.522L13.4726 3.478C13.357 3.27764 13.1756 3.12354 12.9591 3.04194C12.7427 2.96035 12.5047 2.9563 12.2856 3.0305L11.0686 3.4425C10.8589 3.30124 10.6397 3.1746 10.4126 3.0635L10.1606 1.8035C10.1152 1.5769 9.99267 1.37302 9.81392 1.22653C9.63516 1.08005 9.41119 1 9.18008 1H6.82008C6.5889 1.00002 6.36488 1.08014 6.18611 1.22673C6.00735 1.37331 5.88489 1.57731 5.83958 1.804L5.58758 3.0635C5.35797 3.17349 5.13627 3.29929 4.92408 3.44L3.71408 3.0305C3.49513 2.95656 3.25733 2.96074 3.04112 3.04232C2.8249 3.12391 2.64362 3.27786 2.52808 3.478L1.34808 5.522C1.23249 5.72215 1.18979 5.95615 1.22726 6.18423C1.26472 6.4123 1.38003 6.62035 1.55358 6.773L2.51908 7.6215C2.51058 7.7475 2.50008 7.8725 2.50008 8C2.50008 8.129 2.50475 8.25667 2.51408 8.383L1.55408 9.227C1.38037 9.37952 1.26487 9.58751 1.22722 9.81559C1.18957 10.0437 1.2321 10.2777 1.34758 10.478L2.52758 12.522C2.64315 12.7224 2.82461 12.8765 3.04104 12.9581C3.25748 13.0397 3.4955 13.0437 3.71458 12.9695L4.93158 12.5575C5.14126 12.6989 5.36045 12.8257 5.58758 12.937L5.83908 14.196C5.88441 14.4228 6.00694 14.6268 6.1858 14.7734C6.36467 14.92 6.58882 15.0001 6.82008 15H8.00008V14H6.82008L6.46508 12.225C5.97402 12.0425 5.51815 11.7766 5.11758 11.439L3.39408 12.022L2.21408 9.978L3.57658 8.7805C3.48309 8.26346 3.48191 7.73395 3.57308 7.2165L2.21408 6.0215L3.39408 3.978L5.10758 4.558C5.5108 4.21961 5.97027 3.95459 6.46508 3.775L6.82008 2H9.18008L9.53508 3.775C10.0261 3.95747 10.482 4.22338 10.8826 4.561L12.6061 3.978L13.7861 6.022L12.3871 7.248L13.0461 8L14.4461 6.773C14.6198 6.62048 14.7353 6.41249 14.7729 6.18441C14.8106 5.95633 14.7681 5.72225 14.6526 5.522Z" fill="white"/>
</svg>
