<svg width="16" height="16" viewBox="0 0 16 16" fill="none" xmlns="http://www.w3.org/2000/svg">
<mask id="mask0_46_119" style="mask-type:luminance" maskUnits="userSpaceOnUse" x="0" y="0" width="16" height="16">
<path d="M1.66675 2.33334C1.66675 2.06813 1.7721 1.81377 1.95964 1.62624C2.14718 1.4387 2.40153 1.33334 2.66675 1.33334H10.6667C10.932 1.33334 11.1863 1.4387 11.3739 1.62624C11.5614 1.81377 11.6667 2.06813 11.6667 2.33334V14.6667H2.66675C2.40153 14.6667 2.14718 14.5613 1.95964 14.3738C1.7721 14.1862 1.66675 13.9319 1.66675 13.6667V2.33334Z" fill="white" stroke="white" stroke-width="2" stroke-linejoin="round"/>
<path d="M11.6667 8.00001C11.6667 7.8232 11.737 7.65363 11.862 7.52861C11.987 7.40358 12.1566 7.33334 12.3334 7.33334H13.6667C13.8436 7.33334 14.0131 7.40358 14.1382 7.52861C14.2632 7.65363 14.3334 7.8232 14.3334 8.00001V13.6667C14.3334 13.9319 14.2281 14.1862 14.0405 14.3738C13.853 14.5613 13.5986 14.6667 13.3334 14.6667H11.6667V8.00001Z" stroke="white" stroke-width="2" stroke-linejoin="round"/>
<path d="M3.66675 4H6.33341M3.66675 6.33333H7.66675" stroke="black" stroke-width="2" stroke-linecap="round" stroke-linejoin="round"/>
</mask>
<g mask="url(#mask0_46_119)">
<path d="M0 0H16V16H0V0Z" fill="white"/>
</g>
</svg>
