<svg width="32" height="32" viewBox="0 0 32 32" fill="none" xmlns="http://www.w3.org/2000/svg">
<path d="M13.3335 27.7027C12.1733 27.4383 11.0589 27.0029 10.0269 26.4107M18.6669 4.29733C21.3177 4.90276 23.6845 6.39025 25.3797 8.51627C27.0749 10.6423 27.9981 13.2809 27.9981 16C27.9981 18.7191 27.0749 21.3577 25.3797 23.4837C23.6845 25.6097 21.3177 27.0972 18.6669 27.7027M6.10553 22.7907C5.37898 21.7335 4.82664 20.5667 4.46953 19.3347M4.16553 14C4.37886 12.7333 4.78953 11.5333 5.36553 10.4333L5.59086 10.0267M9.20953 6.10533C10.4578 5.24784 11.8571 4.63437 13.3335 4.29733" stroke="white" stroke-width="2" stroke-linecap="round" stroke-linejoin="round"/>
<path d="M16 10.6667V16L20 20" stroke="white" stroke-width="2" stroke-linecap="round" stroke-linejoin="round"/>
</svg>
