<svg width="32" height="32" viewBox="0 0 32 32" fill="none" xmlns="http://www.w3.org/2000/svg">
<path d="M28.2266 20.5333L20.3466 7.39999C19.3066 5.66666 17.7333 4.67999 16 4.67999C14.2666 4.67999 12.6933 5.66666 11.6533 7.38666L3.77331 20.5333C3.18664 21.5067 2.89331 22.52 2.89331 23.48C2.89331 24.24 3.07998 24.9867 3.45331 25.64C4.30664 27.1333 5.95998 28 7.99998 28H24C26.04 28 27.6933 27.1333 28.5466 25.64C28.92 24.9867 29.1066 24.28 29.1066 23.5333C29.12 22.5467 28.8266 21.52 28.2266 20.5333ZM16 11.2667C17.1333 11.2667 18.0666 12.2 18.0666 13.3333C18.0666 14.4667 17.1466 15.4 16 15.4C14.8666 15.4 13.9333 14.4667 13.9333 13.3333C13.9333 12.1867 14.8533 11.2667 16 11.2667ZM18.2533 22.5467C18.2133 22.6 17.1866 23.7733 15.4933 23.7733H15.2933C14.6133 23.7333 14.0533 23.44 13.72 22.9333C13.3066 22.3067 13.24 21.4533 13.56 20.5067L14.1066 18.88C14.4133 17.9733 14.12 17.8267 13.96 17.7467L13.7733 17.72C13.44 17.72 12.9733 17.92 12.8266 18C12.6933 18.0667 12.52 18.04 12.4133 17.9067C12.32 17.7733 12.32 17.6 12.4266 17.48C12.4666 17.4267 13.5866 16.16 15.3866 16.2667C16.0666 16.3067 16.6266 16.6 16.96 17.1067C17.3866 17.7333 17.44 18.5867 17.12 19.5467L16.5733 21.1733C16.2666 22.08 16.56 22.2267 16.72 22.3067L16.9066 22.3333C17.24 22.3333 17.7066 22.1333 17.8533 22.0667C18 21.9867 18.16 22.0267 18.2666 22.16C18.36 22.2533 18.36 22.4267 18.2533 22.5467Z" fill="white"/>
</svg>
