<svg width="16" height="16" viewBox="0 0 16 16" fill="none" xmlns="http://www.w3.org/2000/svg">
<path d="M6.66563 12C6.66563 9.28125 8.70313 7.04063 11.3313 6.7125V6.66563C11.5031 6.41563 11.9969 6 11.9969 5.33125C11.9969 4.6625 11.3313 3.99688 11.3313 3.66563C11.3344 1 9.975 0 8 0C6.10938 0 4.66563 1 4.66563 3.66563C4.66563 4 4 4.66563 4 5.33125C4 5.99688 4.475 6.4375 4.66563 6.66563C4.66563 6.66563 4.66563 7.33125 5 8.33125C5 8.66563 5.66563 8.99688 6 9.33125C6 9.66563 6 9.99687 5.66563 10.6656L2 11.3344C0.665625 11.6656 0 14 0 16H8.48125C7.37187 15.0219 6.66563 13.5938 6.66563 12ZM12 8C9.79063 8 8 9.79063 8 12C8 14.2094 9.79063 16 12 16C14.2094 16 16 14.2094 16 12C16 9.79063 14.2094 8 12 8ZM14.6656 12.6656H12.6656V14.6656H11.3313V12.6656H9.33125V11.3313H11.3313V9.33125H12.6656V11.3313H14.6656V12.6656Z" fill="white"/>
</svg>
